<svg width="48" height="48" viewBox="0 0 48 48" fill="none" xmlns="http://www.w3.org/2000/svg">
<path d="M12 0C10.35 0 9 1.35 9 3V45C9 46.65 10.35 48 12 48H42C43.65 48 45 46.65 45 45V12L33 0H12Z" fill="#E2E5E7"/>
<path d="M36 12H45L33 0V9C33 10.65 34.35 12 36 12Z" fill="#B0B7BD"/>
<path d="M45 21L36 12H45V21Z" fill="#CAD1D8"/>
<path d="M39 39C39 39.825 38.325 40.5 37.5 40.5H4.5C3.675 40.5 3 39.825 3 39V24C3 23.175 3.675 22.5 4.5 22.5H37.5C38.325 22.5 39 23.175 39 24V39Z" fill="#F15642"/>
<path d="M9.53125 28.4218C9.53125 28.0258 9.84325 27.5938 10.3457 27.5938H13.1162C14.6762 27.5938 16.0803 28.6377 16.0803 30.6387C16.0803 32.5347 14.6762 33.5907 13.1162 33.5907H11.1137V35.1747C11.1137 35.7027 10.7777 36.0013 10.3457 36.0013C9.94975 36.0013 9.53125 35.7027 9.53125 35.1747V28.4218ZM11.1137 29.1043V32.0922H13.1162C13.9202 32.0922 14.5562 31.3827 14.5562 30.6387C14.5562 29.8002 13.9202 29.1043 13.1162 29.1043H11.1137ZM18.4293 36.0013C18.0333 36.0013 17.6013 35.7852 17.6013 35.2587V28.4457C17.6013 28.0152 18.0333 27.7017 18.4293 27.7017H21.1757C26.6568 27.7017 26.5368 36.0013 21.2838 36.0013H18.4293ZM19.1853 29.1658V34.5387H21.1757C24.4143 34.5387 24.5583 29.1658 21.1757 29.1658H19.1853ZM28.4808 29.2617V31.1682H31.5393C31.9713 31.1682 32.4033 31.6002 32.4033 32.0187C32.4033 32.4147 31.9713 32.7388 31.5393 32.7388H28.4808V35.2572C28.4808 35.6772 28.1823 35.9998 27.7623 35.9998C27.2343 35.9998 26.9117 35.6772 26.9117 35.2572V28.4442C26.9117 28.0137 27.2358 27.7002 27.7623 27.7002H31.9728C32.5008 27.7002 32.8127 28.0137 32.8127 28.4442C32.8127 28.8282 32.5008 29.2603 31.9728 29.2603H28.4808V29.2617Z" fill="white"/>
<path d="M37.5 40.5H9V42H37.5C38.325 42 39 41.325 39 40.5V39C39 39.825 38.325 40.5 37.5 40.5Z" fill="#CAD1D8"/>
</svg>
