<svg width="100" height="100" viewBox="0 0 100 100" fill="none" xmlns="http://www.w3.org/2000/svg">
<path d="M25.5793 51.5962L49.2439 75.2608C50.7738 76.7907 50.3875 79.3649 48.4756 80.3767L39.4806 85.1401L32.798 88.678L23.6418 93.5265L16.9621 97.0644L16.2758 97.428C12.5822 99.3839 8.04647 98.7003 5.09296 95.7468C3.65263 94.3086 2.71249 92.4457 2.41112 90.4327C2.10727 88.4198 2.45803 86.3625 3.41171 84.564L6.76854 78.2239L11.0197 70.197L16.8461 59.1939L20.4633 52.3642C20.6551 51.9998 20.9155 51.6759 21.2303 51.4103C22.4545 50.3733 24.351 50.3677 25.5793 51.5962Z" fill="#EA9B58"/>
<path d="M48.4746 80.3773L39.4805 85.141L32.7969 88.6781L23.6406 93.5277L16.9609 97.0648L16.2754 97.4281C14.9946 98.1069 13.5755 98.484 12.1267 98.5303C10.6779 98.5767 9.2376 98.2912 7.91602 97.6957C8.09961 97.6136 8.2832 97.5238 8.46289 97.4281L9.14844 97.0648L15.8281 93.5277L24.9844 88.6781L31.668 85.141L40.6621 80.3773C42.5742 79.3656 42.9609 76.7914 41.4316 75.2621L19.7949 53.6254L20.4629 52.3656C20.6641 51.9867 20.9258 51.6683 21.2305 51.4105C22.4531 50.3734 24.3496 50.3675 25.5781 51.5961L49.2441 75.2621C50.7734 76.7914 50.3867 79.3656 48.4746 80.3773Z" fill="#D88A55"/>
<path d="M11.0189 70.1973L23.6408 93.5266L16.9613 97.0646L6.76758 78.2242L11.0189 70.1973Z" fill="#FFE177"/>
<path d="M23.6406 93.5273L16.9609 97.0645L15.2207 93.8496L15.8281 93.5273L21.9004 90.3105L23.6406 93.5273Z" fill="#FFD15B"/>
<path d="M21.2301 51.4121L39.4803 85.1416L32.7977 88.6795L16.8457 59.1955L20.4629 52.3658C20.6547 52.0014 20.9153 51.6776 21.2301 51.4121Z" fill="#FFE177"/>
<path d="M21.2305 51.4102L25.5332 59.3633L19.7949 53.625L20.4629 52.3652C20.6641 51.9863 20.9258 51.668 21.2305 51.4102ZM39.4805 85.1406L32.7969 88.6777L31.0586 85.4629L31.668 85.1406L37.7402 81.9238L39.4805 85.1406Z" fill="#FFD15B"/>
<path d="M83.5433 13.7556L87.805 16.0865C88.5037 16.4685 88.5037 17.4718 87.805 17.8539L83.5433 20.1847C82.1726 20.9343 81.0456 22.0613 80.296 23.432L77.9652 27.6937C77.5832 28.3923 76.5798 28.3923 76.1978 27.6937L73.8669 23.432C73.1173 22.0613 71.9904 20.9343 70.6197 20.1847L66.358 17.8539C65.6593 17.4718 65.6593 16.4685 66.358 16.0865L70.6197 13.7556C71.9904 13.006 73.1173 11.879 73.8669 10.5083L76.1978 6.24663C76.5798 5.548 77.5832 5.548 77.9652 6.24663L80.296 10.5083C81.0456 11.879 82.1726 13.006 83.5433 13.7556Z" fill="#FFE177"/>
<path d="M87.8047 17.853L83.543 20.1851C82.1727 20.9343 81.0461 22.0609 80.2969 23.4312L77.9648 27.6929C77.584 28.3921 76.5801 28.3921 76.1992 27.6929L74.1523 23.9526L74.4375 23.4312C75.1867 22.0609 76.3133 20.9343 77.6836 20.1851L81.9453 17.853C82.6445 17.4722 82.6445 16.4683 81.9453 16.0855L77.6836 13.7554C76.3136 13.0049 75.1872 11.8778 74.4375 10.5073L74.1523 9.98584L76.1992 6.24561C76.5801 5.54834 77.584 5.54834 77.9648 6.24561L80.2969 10.5073C81.0466 11.8778 82.173 13.0049 83.543 13.7554L87.8047 16.0855C88.5039 16.4683 88.5039 17.4722 87.8047 17.853Z" fill="#FFD15B"/>
<path d="M78.8672 65.8213H58.6846C58.2647 65.8213 57.8621 65.6545 57.5652 65.3576C57.2683 65.0608 57.1016 64.6581 57.1016 64.2383V59.8037C57.1016 59.3839 57.2683 58.9812 57.5652 58.6844C57.8621 58.3875 58.2647 58.2207 58.6846 58.2207H71.2666C75.4643 58.2207 78.8672 61.6236 78.8672 65.8213Z" fill="#FE646F"/>
<path d="M90.3701 73.4229H77.7881C73.5904 73.4229 70.1875 70.0199 70.1875 65.8223H90.3701C90.79 65.8223 91.1926 65.989 91.4895 66.2859C91.7863 66.5828 91.9531 66.9854 91.9531 67.4053V71.8398C91.9531 72.2597 91.7863 72.6623 91.4895 72.9592C91.1926 73.2561 90.79 73.4229 90.3701 73.4229Z" fill="#FD4755"/>
<path d="M31.6113 28.9121V8.72949C31.6113 8.30965 31.7781 7.90701 32.075 7.61014C32.3719 7.31326 32.7745 7.14648 33.1943 7.14648H37.6289C38.0487 7.14648 38.4514 7.31326 38.7483 7.61014C39.0451 7.90701 39.2119 8.30965 39.2119 8.72949V21.3115C39.2119 25.5092 35.809 28.9121 31.6113 28.9121Z" fill="#A2E62E"/>
<path d="M24.0098 40.415V27.833C24.0098 23.6354 27.4127 20.2324 31.6104 20.2324V40.415C31.6104 40.8349 31.4436 41.2375 31.1467 41.5344C30.8498 41.8313 30.4472 41.998 30.0273 41.998H25.5928C25.1729 41.998 24.7703 41.8312 24.4735 41.5343C24.1766 41.2375 24.0098 40.8349 24.0098 40.415Z" fill="#BBEC6C"/>
<path d="M41.7631 56.2685C43.7659 56.2685 45.3895 54.645 45.3895 52.6422C45.3895 50.6394 43.7659 49.0158 41.7631 49.0158C39.7603 49.0158 38.1367 50.6394 38.1367 52.6422C38.1367 54.645 39.7603 56.2685 41.7631 56.2685Z" fill="#D8ECFE"/>
<path d="M55.1166 52.4266C57.1194 52.4266 58.743 50.803 58.743 48.8002C58.743 46.7974 57.1194 45.1738 55.1166 45.1738C53.1138 45.1738 51.4902 46.7974 51.4902 48.8002C51.4902 50.803 53.1138 52.4266 55.1166 52.4266Z" fill="#EAF6FF"/>
<path d="M94.0658 31.0809C96.0686 31.0809 97.6922 29.4573 97.6922 27.4546C97.6922 25.4518 96.0686 23.8282 94.0658 23.8282C92.063 23.8282 90.4395 25.4518 90.4395 27.4546C90.4395 29.4573 92.063 31.0809 94.0658 31.0809Z" fill="#EAF6FF"/>
<path d="M85.8998 43.8013L75.5828 46.6266C74.9759 46.7929 74.3294 46.7346 73.7619 46.4626C73.1945 46.1906 72.7441 45.723 72.4936 45.1458C72.243 44.5686 72.209 43.9203 72.3979 43.3201C72.5867 42.7198 72.9857 42.2078 73.5217 41.878L82.6315 36.2716C83.9869 35.4374 85.7668 35.9974 86.4004 37.4573L87.6074 40.2384C88.2412 41.6983 87.4348 43.3809 85.8998 43.8013Z" fill="#6BD9E7"/>
<path d="M62.2377 6.11879L57.6175 15.7664C57.3457 16.334 56.8784 16.7844 56.3012 17.0352C55.7241 17.286 55.0759 17.3202 54.4756 17.1317C53.8752 16.9431 53.363 16.5443 53.033 16.0085C52.703 15.4727 52.5772 14.8359 52.6789 14.2149L54.4066 3.65844C54.6636 2.08773 56.2525 1.10922 57.7707 1.58617L60.6631 2.49496C62.1814 2.97191 62.925 4.68344 62.2377 6.11879Z" fill="#EA9B58"/>
<path d="M94.6741 55.3136L86.0645 55.0295C85.5579 55.013 85.0742 54.8143 84.7022 54.4699C84.3303 54.1255 84.0951 53.6584 84.0399 53.1545C83.9846 52.6507 84.1131 52.1437 84.4015 51.7269C84.69 51.3101 85.1192 51.0113 85.6102 50.8855L93.9538 48.7427C95.1952 48.424 96.4311 49.2787 96.5708 50.5527L96.8368 52.9797C96.9764 54.2535 95.9552 55.3558 94.6741 55.3136Z" fill="#FE646F"/>
<path d="M45.3894 71.4067L49.2439 75.2612C50.7738 76.7911 50.3875 79.3653 48.4756 80.377L39.4806 85.1405L32.798 88.6784L23.6418 93.5268L16.9621 97.0647L16.2758 97.4284C12.5822 99.3843 8.04647 98.7007 5.09296 95.7471C3.65263 94.309 2.71249 92.4461 2.41112 90.4331C2.10727 88.4201 2.45803 86.3629 3.41171 84.5643L6.76854 78.2243L11.0197 70.1973L16.8461 59.1942L20.4633 52.3645C20.6551 52.0001 20.9155 51.6762 21.2303 51.4106C22.4545 50.3733 24.3508 50.3676 25.5791 51.596L40.19 66.2069" stroke="white" stroke-width="1.40625" stroke-miterlimit="10" stroke-linecap="round" stroke-linejoin="round"/>
<path d="M75.5156 59.5193C77.5373 60.8851 78.8666 63.1982 78.8666 65.8218H58.684C58.2642 65.8218 57.8615 65.655 57.5646 65.3582C57.2678 65.0613 57.101 64.6587 57.101 64.2388V59.8043C57.101 59.3844 57.2678 58.9818 57.5646 58.6849C57.8615 58.388 58.2642 58.2212 58.684 58.2212H68.2539M11.0189 70.1974L23.6408 93.5267L16.9613 97.0648L6.76758 78.2244L11.0189 70.1974ZM21.2295 51.4109L39.4797 85.1404L32.7971 88.6783L16.8451 59.1943L20.4623 52.3646C20.6542 52.0002 20.9147 51.6764 21.2295 51.4109ZM83.5436 13.7556L87.8053 16.0865C88.5039 16.4685 88.5039 17.4718 87.8053 17.8539L83.5436 20.1847C82.1729 20.9343 81.0459 22.0613 80.2963 23.432L77.9654 27.6937C77.5834 28.3923 76.5801 28.3923 76.1981 27.6937L73.8672 23.432C73.1176 22.0613 71.9906 20.9343 70.6199 20.1847L66.3582 17.8539C65.6596 17.4718 65.6596 16.4685 66.3582 16.0865L70.6199 13.7556C71.9906 13.006 73.1176 11.879 73.8672 10.5084L76.1981 6.24663C76.5801 5.548 77.5834 5.548 77.9654 6.24663L80.2963 10.5084C81.0459 11.879 82.1729 13.006 83.5436 13.7556Z" stroke="white" stroke-miterlimit="10" stroke-linecap="round" stroke-linejoin="round"/>
<path d="M90.3707 73.424H77.7887C73.591 73.424 70.1881 70.0211 70.1881 65.8234H90.3707C90.7905 65.8234 91.1932 65.9902 91.4901 66.2871C91.7869 66.584 91.9537 66.9866 91.9537 67.4064V71.841C91.9537 72.2609 91.7869 72.6635 91.4901 72.9604C91.1932 73.2572 90.7905 73.424 90.3707 73.424ZM31.6113 28.9121V8.72949C31.6113 8.30965 31.7781 7.90701 32.075 7.61014C32.3719 7.31326 32.7745 7.14648 33.1943 7.14648H37.6289C38.0487 7.14648 38.4514 7.31326 38.7483 7.61014C39.0451 7.90701 39.2119 8.30965 39.2119 8.72949V21.3115C39.2119 25.5092 35.809 28.9121 31.6113 28.9121Z" stroke="white" stroke-miterlimit="10" stroke-linecap="round" stroke-linejoin="round"/>
<path d="M58.8307 75.5879C58.8307 75.5879 66.948 75.627 71.6504 82.3623M8.17188 11.6172C9.74961 10.0395 13.807 9.69888 12.0037 16.9694C10.2004 24.2399 8.69277 26.9922 13.5814 28.9098C18.4701 30.8274 16.8461 33.6168 16.8461 35.9608M24.0109 40.4129V27.8309C24.0109 23.6332 27.4139 20.2303 31.6115 20.2303V40.4129C31.6115 40.8328 31.4447 41.2354 31.1479 41.5323C30.851 41.8292 30.4484 41.9959 30.0285 41.9959H25.5939C25.1741 41.9959 24.7715 41.8291 24.4746 41.5322C24.1778 41.2354 24.011 40.8328 24.0109 40.4129Z" stroke="white" stroke-miterlimit="10" stroke-linecap="round" stroke-linejoin="round"/>
<path d="M41.7631 56.2685C43.7659 56.2685 45.3895 54.645 45.3895 52.6422C45.3895 50.6394 43.7659 49.0158 41.7631 49.0158C39.7603 49.0158 38.1367 50.6394 38.1367 52.6422C38.1367 54.645 39.7603 56.2685 41.7631 56.2685Z" stroke="white" stroke-width="1.40625" stroke-miterlimit="10" stroke-linecap="round" stroke-linejoin="round"/>
<path d="M55.1166 52.4266C57.1194 52.4266 58.743 50.803 58.743 48.8002C58.743 46.7974 57.1194 45.1738 55.1166 45.1738C53.1138 45.1738 51.4902 46.7974 51.4902 48.8002C51.4902 50.803 53.1138 52.4266 55.1166 52.4266Z" stroke="white" stroke-width="1.40625" stroke-miterlimit="10" stroke-linecap="round" stroke-linejoin="round"/>
<path d="M94.0658 31.0809C96.0686 31.0809 97.6922 29.4573 97.6922 27.4546C97.6922 25.4518 96.0686 23.8282 94.0658 23.8282C92.063 23.8282 90.4395 25.4518 90.4395 27.4546C90.4395 29.4573 92.063 31.0809 94.0658 31.0809Z" stroke="white" stroke-width="1.40625" stroke-miterlimit="10" stroke-linecap="round" stroke-linejoin="round"/>
<path d="M41.7639 38.892C41.7639 38.892 50.3228 33.4541 49.1957 23.3252M54.2561 4.58383L54.4074 3.65844C54.6645 2.08773 56.2533 1.10922 57.7715 1.58617L60.6639 2.49496C62.1822 2.97191 62.9258 4.68344 62.2385 6.11879L57.6184 15.7664C57.3465 16.334 56.8792 16.7844 56.302 17.0352C55.7249 17.286 55.0767 17.3202 54.4764 17.1317C53.876 16.9431 53.3638 16.5443 53.0338 16.0085C52.7038 15.4727 52.578 14.8359 52.6797 14.2149L53.0502 11.951M64.2344 38.892C64.2344 38.892 68.5355 33.2569 72.2772 32.1299M5.35 42.2094V48.0463M8.26856 45.128H2.43164M85.8998 43.8012L75.5828 46.6266C74.9759 46.7928 74.3294 46.7346 73.7619 46.4625C73.1944 46.1905 72.7441 45.723 72.4936 45.1457C72.243 44.5685 72.209 43.9203 72.3979 43.32C72.5867 42.7197 72.9857 42.2077 73.5217 41.878L82.6314 36.2715C83.9869 35.4373 85.7668 35.9973 86.4004 37.4573L87.6074 40.2383C88.2412 41.6983 87.4348 43.3809 85.8998 43.8012ZM94.6754 55.3135L86.0658 55.0293C85.5593 55.0127 85.0759 54.8139 84.7041 54.4694C84.3324 54.125 84.0974 53.6581 84.0422 53.1543C83.9869 52.6506 84.1152 52.1438 84.4035 51.727C84.6917 51.3102 85.1207 51.0114 85.6115 50.8854L93.9551 48.7426C95.1965 48.4239 96.4324 49.2786 96.5721 50.5526L96.8381 52.9795C96.9777 54.2534 95.9564 55.3557 94.6754 55.3135Z" stroke="white" stroke-miterlimit="10" stroke-linecap="round" stroke-linejoin="round"/>
</svg>
